# MagicaVoxel @ Ephtracy

# group
o 

# material
mtllib Bed.mtl
usemtl palette

# normals
vn -1 0 0
vn 1 0 0
vn 0 0 1
vn 0 0 -1
vn 0 -1 0
vn 0 1 0

# texcoords
vt 0.00195312 0.5
vt 0.306641 0.5
vt 0.533203 0.5
vt 0.537109 0.5
vt 0.958984 0.5

# verts
v -2 0.3 1
v -2 0.3 -1.1
v -2 0.7 0.9
v -2 0.7 0.8
v -2 0.7 -0.9
v -2 0.7 -1
v -2 0.8 0.8
v -2 0.8 0.7
v -2 0.8 -0.8
v -2 0.8 -0.9
v -2 0.9 0.7
v -2 0.9 0.6
v -2 0.9 -0.7
v -2 0.9 -0.8
v -2 1 0.6
v -2 1 -0.7
v -2 1.2 1
v -2 1.2 0.9
v -2 1.2 -1
v -2 1.2 -1.1
v -2 1.3 1
v -2 1.3 0.9
v -2 1.3 -1
v -2 1.3 -1.1
v -1.9 0 0.9
v -1.9 0 0.7
v -1.9 0 -0.8
v -1.9 0 -1
v -1.9 0.1 0.9
v -1.9 0.1 0.7
v -1.9 0.1 -0.8
v -1.9 0.1 -1
v -1.8 0.1 0.8
v -1.8 0.1 0.7
v -1.8 0.1 -0.8
v -1.8 0.1 -0.9
v -1.8 0.3 0.8
v -1.8 0.3 0.7
v -1.8 0.3 -0.8
v -1.8 0.3 -0.9
v 1.3 0.7 0.9
v 1.3 0.7 0
v 1.3 0.7 -0.1
v 1.3 0.7 -1
v 1.3 0.9 0.9
v 1.3 0.9 0
v 1.3 0.9 -0.1
v 1.3 0.9 -1
v 1.7 0 0.9
v 1.7 0 0.7
v 1.7 0 -0.8
v 1.7 0 -1
v 1.7 0.1 0.9
v 1.7 0.1 0.8
v 1.7 0.1 0.7
v 1.7 0.1 -0.8
v 1.7 0.1 -0.9
v 1.7 0.1 -1
v 1.7 0.3 0.8
v 1.7 0.3 0.7
v 1.7 0.3 -0.8
v 1.7 0.3 -0.9
v 1.9 0.7 1
v 1.9 0.7 -1.1
v 1.9 0.8 0.9
v 1.9 0.8 0.8
v 1.9 0.8 -0.9
v 1.9 0.8 -1
v 1.9 1 0.8
v 1.9 1 0.7
v 1.9 1 -0.8
v 1.9 1 -0.9
v 1.9 1.2 1
v 1.9 1.2 0.9
v 1.9 1.2 0.7
v 1.9 1.2 0.6
v 1.9 1.2 -0.7
v 1.9 1.2 -0.8
v 1.9 1.2 -1
v 1.9 1.2 -1.1
v 1.9 1.3 1
v 1.9 1.3 0.9
v 1.9 1.3 0.6
v 1.9 1.3 -0.7
v 1.9 1.3 -1
v 1.9 1.3 -1.1
v -1.9 0.7 1
v -1.9 0.7 0.9
v -1.9 0.7 0.8
v -1.9 0.7 -0.9
v -1.9 0.7 -1
v -1.9 0.7 -1.1
v -1.9 0.8 0.8
v -1.9 0.8 0.7
v -1.9 0.8 -0.8
v -1.9 0.8 -0.9
v -1.9 0.9 0.7
v -1.9 0.9 0.6
v -1.9 0.9 -0.7
v -1.9 0.9 -0.8
v -1.9 1 0.6
v -1.9 1 -0.7
v -1.9 1.2 1
v -1.9 1.2 0.9
v -1.9 1.2 -1
v -1.9 1.2 -1.1
v -1.9 1.3 1
v -1.9 1.3 0.9
v -1.9 1.3 -1
v -1.9 1.3 -1.1
v -1.7 0 0.9
v -1.7 0 0.7
v -1.7 0 -0.8
v -1.7 0 -1
v -1.7 0.1 0.9
v -1.7 0.1 0.8
v -1.7 0.1 0.7
v -1.7 0.1 -0.8
v -1.7 0.1 -0.9
v -1.7 0.1 -1
v -1.7 0.3 0.8
v -1.7 0.3 0.7
v -1.7 0.3 -0.8
v -1.7 0.3 -0.9
v 1.8 0.1 0.8
v 1.8 0.1 0.7
v 1.8 0.1 -0.8
v 1.8 0.1 -0.9
v 1.8 0.3 0.8
v 1.8 0.3 0.7
v 1.8 0.3 -0.8
v 1.8 0.3 -0.9
v 1.8 0.7 0.9
v 1.8 0.7 0
v 1.8 0.7 -0.1
v 1.8 0.7 -1
v 1.8 0.9 0.9
v 1.8 0.9 0
v 1.8 0.9 -0.1
v 1.8 0.9 -1
v 1.9 0 0.9
v 1.9 0 0.7
v 1.9 0 -0.8
v 1.9 0 -1
v 1.9 0.1 0.9
v 1.9 0.1 0.7
v 1.9 0.1 -0.8
v 1.9 0.1 -1
v 2 0.3 1
v 2 0.3 -1.1
v 2 0.8 0.9
v 2 0.8 0.8
v 2 0.8 -0.9
v 2 0.8 -1
v 2 1 0.8
v 2 1 0.7
v 2 1 -0.8
v 2 1 -0.9
v 2 1.2 1
v 2 1.2 0.9
v 2 1.2 0.7
v 2 1.2 0.6
v 2 1.2 -0.7
v 2 1.2 -0.8
v 2 1.2 -1
v 2 1.2 -1.1
v 2 1.3 1
v 2 1.3 0.9
v 2 1.3 0.6
v 2 1.3 -0.7
v 2 1.3 -1
v 2 1.3 -1.1
v -2 0.3 1
v -2 1.2 1
v -2 1.3 1
v -1.9 0.5 1
v -1.9 0.7 1
v -1.9 1.2 1
v -1.9 1.3 1
v 0.3 0.5 1
v 0.3 0.7 1
v 0.7 0.5 1
v 0.7 0.7 1
v 1.2 0.5 1
v 1.2 0.7 1
v 1.9 0.5 1
v 1.9 0.7 1
v 1.9 1.2 1
v 1.9 1.3 1
v 2 0.3 1
v 2 1.2 1
v 2 1.3 1
v -1.9 0 0.9
v -1.9 0.1 0.9
v -1.7 0 0.9
v -1.7 0.1 0.9
v 1.3 0.7 0.9
v 1.3 0.9 0.9
v 1.7 0 0.9
v 1.7 0.1 0.9
v 1.8 0.7 0.9
v 1.8 0.9 0.9
v 1.9 0 0.9
v 1.9 0.1 0.9
v -2 0.7 0.8
v -2 0.8 0.8
v -1.9 0.7 0.8
v -1.9 0.8 0.8
v -1.8 0.1 0.8
v -1.8 0.3 0.8
v -1.7 0.1 0.8
v -1.7 0.3 0.8
v 1.7 0.1 0.8
v 1.7 0.3 0.8
v 1.8 0.1 0.8
v 1.8 0.3 0.8
v 1.9 0.8 0.8
v 1.9 1 0.8
v 2 0.8 0.8
v 2 1 0.8
v -2 0.8 0.7
v -2 0.9 0.7
v -1.9 0.8 0.7
v -1.9 0.9 0.7
v 1.9 1 0.7
v 1.9 1.2 0.7
v 2 1 0.7
v 2 1.2 0.7
v -2 0.9 0.6
v -2 1 0.6
v -1.9 0.9 0.6
v -1.9 1 0.6
v 1.9 1.2 0.6
v 1.9 1.3 0.6
v 2 1.2 0.6
v 2 1.3 0.6
v 1.3 0.7 -0.1
v 1.3 0.9 -0.1
v 1.8 0.7 -0.1
v 1.8 0.9 -0.1
v -1.9 0 -0.8
v -1.9 0.1 -0.8
v -1.8 0.1 -0.8
v -1.8 0.3 -0.8
v -1.7 0 -0.8
v -1.7 0.1 -0.8
v -1.7 0.3 -0.8
v 1.7 0 -0.8
v 1.7 0.1 -0.8
v 1.7 0.3 -0.8
v 1.8 0.1 -0.8
v 1.8 0.3 -0.8
v 1.9 0 -0.8
v 1.9 0.1 -0.8
v -2 0.7 -1
v -2 1.2 -1
v -2 1.3 -1
v -1.9 0.7 -1
v -1.9 1.2 -1
v -1.9 1.3 -1
v 1.9 0.8 -1
v 1.9 1.2 -1
v 1.9 1.3 -1
v 2 0.8 -1
v 2 1.2 -1
v 2 1.3 -1
v -2 0.7 0.9
v -2 1.2 0.9
v -2 1.3 0.9
v -1.9 0.7 0.9
v -1.9 1.2 0.9
v -1.9 1.3 0.9
v 1.9 0.8 0.9
v 1.9 1.2 0.9
v 1.9 1.3 0.9
v 2 0.8 0.9
v 2 1.2 0.9
v 2 1.3 0.9
v -1.9 0 0.7
v -1.9 0.1 0.7
v -1.8 0.1 0.7
v -1.8 0.3 0.7
v -1.7 0 0.7
v -1.7 0.1 0.7
v -1.7 0.3 0.7
v 1.7 0 0.7
v 1.7 0.1 0.7
v 1.7 0.3 0.7
v 1.8 0.1 0.7
v 1.8 0.3 0.7
v 1.9 0 0.7
v 1.9 0.1 0.7
v 1.3 0.7 0
v 1.3 0.9 0
v 1.8 0.7 0
v 1.8 0.9 0
v -2 0.9 -0.7
v -2 1 -0.7
v -1.9 0.9 -0.7
v -1.9 1 -0.7
v 1.9 1.2 -0.7
v 1.9 1.3 -0.7
v 2 1.2 -0.7
v 2 1.3 -0.7
v -2 0.8 -0.8
v -2 0.9 -0.8
v -1.9 0.8 -0.8
v -1.9 0.9 -0.8
v 1.9 1 -0.8
v 1.9 1.2 -0.8
v 2 1 -0.8
v 2 1.2 -0.8
v -2 0.7 -0.9
v -2 0.8 -0.9
v -1.9 0.7 -0.9
v -1.9 0.8 -0.9
v -1.8 0.1 -0.9
v -1.8 0.3 -0.9
v -1.7 0.1 -0.9
v -1.7 0.3 -0.9
v 1.7 0.1 -0.9
v 1.7 0.3 -0.9
v 1.8 0.1 -0.9
v 1.8 0.3 -0.9
v 1.9 0.8 -0.9
v 1.9 1 -0.9
v 2 0.8 -0.9
v 2 1 -0.9
v -1.9 0 -1
v -1.9 0.1 -1
v -1.7 0 -1
v -1.7 0.1 -1
v 1.3 0.7 -1
v 1.3 0.9 -1
v 1.7 0 -1
v 1.7 0.1 -1
v 1.8 0.7 -1
v 1.8 0.9 -1
v 1.9 0 -1
v 1.9 0.1 -1
v -2 0.3 -1.1
v -2 1.2 -1.1
v -2 1.3 -1.1
v -1.9 0.5 -1.1
v -1.9 0.7 -1.1
v -1.9 1.2 -1.1
v -1.9 1.3 -1.1
v 0.3 0.5 -1.1
v 0.3 0.7 -1.1
v 0.7 0.5 -1.1
v 0.7 0.7 -1.1
v 1.2 0.5 -1.1
v 1.2 0.7 -1.1
v 1.9 0.5 -1.1
v 1.9 0.7 -1.1
v 1.9 1.2 -1.1
v 1.9 1.3 -1.1
v 2 0.3 -1.1
v 2 1.2 -1.1
v 2 1.3 -1.1
v -1.9 0 0.9
v -1.7 0 0.9
v 1.7 0 0.9
v 1.9 0 0.9
v -1.9 0 0.7
v -1.7 0 0.7
v 1.7 0 0.7
v 1.9 0 0.7
v -1.9 0 -0.8
v -1.7 0 -0.8
v 1.7 0 -0.8
v 1.9 0 -0.8
v -1.9 0 -1
v -1.7 0 -1
v 1.7 0 -1
v 1.9 0 -1
v -2 0.3 1
v 2 0.3 1
v -1.8 0.3 0.8
v -1.7 0.3 0.8
v 1.7 0.3 0.8
v 1.8 0.3 0.8
v -1.8 0.3 0.7
v -1.7 0.3 0.7
v 1.7 0.3 0.7
v 1.8 0.3 0.7
v -1.8 0.3 -0.8
v -1.7 0.3 -0.8
v 1.7 0.3 -0.8
v 1.8 0.3 -0.8
v -1.8 0.3 -0.9
v -1.7 0.3 -0.9
v 1.7 0.3 -0.9
v 1.8 0.3 -0.9
v -2 0.3 -1.1
v 2 0.3 -1.1
v -1.9 0.1 0.9
v -1.7 0.1 0.9
v 1.7 0.1 0.9
v 1.9 0.1 0.9
v -1.8 0.1 0.8
v -1.7 0.1 0.8
v 1.7 0.1 0.8
v 1.8 0.1 0.8
v -1.9 0.1 0.7
v -1.8 0.1 0.7
v 1.8 0.1 0.7
v 1.9 0.1 0.7
v -1.9 0.1 -0.8
v -1.8 0.1 -0.8
v 1.8 0.1 -0.8
v 1.9 0.1 -0.8
v -1.8 0.1 -0.9
v -1.7 0.1 -0.9
v 1.7 0.1 -0.9
v 1.8 0.1 -0.9
v -1.9 0.1 -1
v -1.7 0.1 -1
v 1.7 0.1 -1
v 1.9 0.1 -1
v -1.9 0.7 1
v 0.3 0.7 1
v 0.7 0.7 1
v 1.2 0.7 1
v 1.9 0.7 1
v -2 0.7 0.9
v -1.9 0.7 0.9
v 1.3 0.7 0.9
v 1.8 0.7 0.9
v -2 0.7 0.8
v -1.9 0.7 0.8
v 1.3 0.7 0
v 1.8 0.7 0
v 1.3 0.7 -0.1
v 1.8 0.7 -0.1
v -2 0.7 -0.9
v -1.9 0.7 -0.9
v -2 0.7 -1
v -1.9 0.7 -1
v 1.3 0.7 -1
v 1.8 0.7 -1
v -1.9 0.7 -1.1
v 0.3 0.7 -1.1
v 0.7 0.7 -1.1
v 1.2 0.7 -1.1
v 1.9 0.7 -1.1
v 1.9 0.8 0.9
v 2 0.8 0.9
v -2 0.8 0.8
v -1.9 0.8 0.8
v 1.9 0.8 0.8
v 2 0.8 0.8
v -2 0.8 0.7
v -1.9 0.8 0.7
v -2 0.8 -0.8
v -1.9 0.8 -0.8
v -2 0.8 -0.9
v -1.9 0.8 -0.9
v 1.9 0.8 -0.9
v 2 0.8 -0.9
v 1.9 0.8 -1
v 2 0.8 -1
v 1.3 0.9 0.9
v 1.8 0.9 0.9
v -2 0.9 0.7
v -1.9 0.9 0.7
v -2 0.9 0.6
v -1.9 0.9 0.6
v 1.3 0.9 0
v 1.8 0.9 0
v 1.3 0.9 -0.1
v 1.8 0.9 -0.1
v -2 0.9 -0.7
v -1.9 0.9 -0.7
v -2 0.9 -0.8
v -1.9 0.9 -0.8
v 1.3 0.9 -1
v 1.8 0.9 -1
v 1.9 1 0.8
v 2 1 0.8
v 1.9 1 0.7
v 2 1 0.7
v -2 1 0.6
v -1.9 1 0.6
v -2 1 -0.7
v -1.9 1 -0.7
v 1.9 1 -0.8
v 2 1 -0.8
v 1.9 1 -0.9
v 2 1 -0.9
v 1.9 1.2 0.7
v 2 1.2 0.7
v 1.9 1.2 0.6
v 2 1.2 0.6
v 1.9 1.2 -0.7
v 2 1.2 -0.7
v 1.9 1.2 -0.8
v 2 1.2 -0.8
v -2 1.3 1
v -1.9 1.3 1
v 1.9 1.3 1
v 2 1.3 1
v -2 1.3 0.9
v -1.9 1.3 0.9
v 1.9 1.3 0.9
v 2 1.3 0.9
v 1.9 1.3 0.6
v 2 1.3 0.6
v 1.9 1.3 -0.7
v 2 1.3 -0.7
v -2 1.3 -1
v -1.9 1.3 -1
v 1.9 1.3 -1
v 2 1.3 -1
v -2 1.3 -1.1
v -1.9 1.3 -1.1
v 1.9 1.3 -1.1
v 2 1.3 -1.1

# faces
f 3/4/1 2/4/1 1/4/1
f 4/4/1 2/4/1 3/4/1
f 5/4/1 2/4/1 4/4/1
f 6/4/1 2/4/1 5/4/1
f 7/4/1 5/4/1 4/4/1
f 8/4/1 5/4/1 7/4/1
f 9/4/1 5/4/1 8/4/1
f 10/4/1 5/4/1 9/4/1
f 11/4/1 9/4/1 8/4/1
f 12/4/1 9/4/1 11/4/1
f 13/4/1 9/4/1 12/4/1
f 14/4/1 9/4/1 13/4/1
f 15/4/1 13/4/1 12/4/1
f 16/4/1 13/4/1 15/4/1
f 17/4/1 3/4/1 1/4/1
f 18/4/1 3/4/1 17/4/1
f 19/4/1 2/4/1 6/4/1
f 20/4/1 2/4/1 19/4/1
f 21/2/1 18/2/1 17/2/1
f 22/2/1 18/2/1 21/2/1
f 23/2/1 20/2/1 19/2/1
f 24/2/1 20/2/1 23/2/1
f 29/3/1 26/3/1 25/3/1
f 30/3/1 26/3/1 29/3/1
f 31/3/1 28/3/1 27/3/1
f 32/3/1 28/3/1 31/3/1
f 37/4/1 34/4/1 33/4/1
f 38/4/1 34/4/1 37/4/1
f 39/4/1 36/4/1 35/4/1
f 40/4/1 36/4/1 39/4/1
f 45/2/1 42/2/1 41/2/1
f 46/2/1 42/2/1 45/2/1
f 47/2/1 44/2/1 43/2/1
f 48/2/1 44/2/1 47/2/1
f 53/3/1 50/3/1 49/3/1
f 54/3/1 50/3/1 53/3/1
f 55/3/1 50/3/1 54/3/1
f 56/3/1 52/3/1 51/3/1
f 57/3/1 52/3/1 56/3/1
f 58/3/1 52/3/1 57/3/1
f 59/4/1 55/4/1 54/4/1
f 60/4/1 55/4/1 59/4/1
f 61/4/1 57/4/1 56/4/1
f 62/4/1 57/4/1 61/4/1
f 65/4/1 64/4/1 63/4/1
f 66/4/1 64/4/1 65/4/1
f 67/4/1 64/4/1 66/4/1
f 68/4/1 64/4/1 67/4/1
f 69/4/1 67/4/1 66/4/1
f 70/4/1 67/4/1 69/4/1
f 71/4/1 67/4/1 70/4/1
f 72/4/1 67/4/1 71/4/1
f 73/4/1 65/4/1 63/4/1
f 74/4/1 65/4/1 73/4/1
f 75/4/1 71/4/1 70/4/1
f 76/4/1 71/4/1 75/4/1
f 77/4/1 71/4/1 76/4/1
f 78/4/1 71/4/1 77/4/1
f 79/4/1 64/4/1 68/4/1
f 80/4/1 64/4/1 79/4/1
f 81/2/1 74/2/1 73/2/1
f 82/2/1 74/2/1 81/2/1
f 83/4/1 77/4/1 76/4/1
f 84/4/1 77/4/1 83/4/1
f 85/2/1 80/2/1 79/2/1
f 86/2/1 80/2/1 85/2/1
f 89/4/2 90/4/2 93/4/2
f 93/4/2 90/4/2 94/4/2
f 94/4/2 90/4/2 95/4/2
f 95/4/2 90/4/2 96/4/2
f 94/4/2 95/4/2 97/4/2
f 97/4/2 95/4/2 98/4/2
f 98/4/2 95/4/2 99/4/2
f 99/4/2 95/4/2 100/4/2
f 98/4/2 99/4/2 101/4/2
f 101/4/2 99/4/2 102/4/2
f 87/4/2 88/4/2 103/4/2
f 103/4/2 88/4/2 104/4/2
f 91/4/2 92/4/2 105/4/2
f 105/4/2 92/4/2 106/4/2
f 103/2/2 104/2/2 107/2/2
f 107/2/2 104/2/2 108/2/2
f 105/2/2 106/2/2 109/2/2
f 109/2/2 106/2/2 110/2/2
f 111/3/2 112/3/2 115/3/2
f 115/3/2 112/3/2 116/3/2
f 116/3/2 112/3/2 117/3/2
f 113/3/2 114/3/2 118/3/2
f 118/3/2 114/3/2 119/3/2
f 119/3/2 114/3/2 120/3/2
f 116/4/2 117/4/2 121/4/2
f 121/4/2 117/4/2 122/4/2
f 118/4/2 119/4/2 123/4/2
f 123/4/2 119/4/2 124/4/2
f 125/4/2 126/4/2 129/4/2
f 129/4/2 126/4/2 130/4/2
f 127/4/2 128/4/2 131/4/2
f 131/4/2 128/4/2 132/4/2
f 133/2/2 134/2/2 137/2/2
f 137/2/2 134/2/2 138/2/2
f 135/2/2 136/2/2 139/2/2
f 139/2/2 136/2/2 140/2/2
f 141/3/2 142/3/2 145/3/2
f 145/3/2 142/3/2 146/3/2
f 143/3/2 144/3/2 147/3/2
f 147/3/2 144/3/2 148/3/2
f 149/4/2 150/4/2 151/4/2
f 151/4/2 150/4/2 152/4/2
f 152/4/2 150/4/2 153/4/2
f 153/4/2 150/4/2 154/4/2
f 152/4/2 153/4/2 155/4/2
f 155/4/2 153/4/2 156/4/2
f 156/4/2 153/4/2 157/4/2
f 157/4/2 153/4/2 158/4/2
f 149/4/2 151/4/2 159/4/2
f 159/4/2 151/4/2 160/4/2
f 156/4/2 157/4/2 161/4/2
f 161/4/2 157/4/2 162/4/2
f 162/4/2 157/4/2 163/4/2
f 163/4/2 157/4/2 164/4/2
f 154/4/2 150/4/2 165/4/2
f 165/4/2 150/4/2 166/4/2
f 159/2/2 160/2/2 167/2/2
f 167/2/2 160/2/2 168/2/2
f 162/4/2 163/4/2 169/4/2
f 169/4/2 163/4/2 170/4/2
f 165/2/2 166/2/2 171/2/2
f 171/2/2 166/2/2 172/2/2
f 176/4/3 174/4/3 173/4/3
f 177/4/3 174/4/3 176/4/3
f 178/2/3 175/2/3 174/2/3
f 178/4/3 174/4/3 177/4/3
f 179/2/3 175/2/3 178/2/3
f 180/2/3 177/2/3 176/2/3
f 180/4/3 176/4/3 173/4/3
f 181/2/3 177/2/3 180/2/3
f 182/4/3 180/4/3 173/4/3
f 182/1/3 181/1/3 180/1/3
f 183/1/3 181/1/3 182/1/3
f 184/4/3 182/4/3 173/4/3
f 184/2/3 183/2/3 182/2/3
f 185/2/3 183/2/3 184/2/3
f 186/4/3 184/4/3 173/4/3
f 186/5/3 185/5/3 184/5/3
f 187/5/3 185/5/3 186/5/3
f 190/4/3 187/4/3 186/4/3
f 190/4/3 186/4/3 173/4/3
f 190/4/3 188/4/3 187/4/3
f 191/2/3 189/2/3 188/2/3
f 191/4/3 188/4/3 190/4/3
f 192/2/3 189/2/3 191/2/3
f 195/3/3 194/3/3 193/3/3
f 196/3/3 194/3/3 195/3/3
f 201/2/3 198/2/3 197/2/3
f 202/2/3 198/2/3 201/2/3
f 203/3/3 200/3/3 199/3/3
f 204/3/3 200/3/3 203/3/3
f 207/4/3 206/4/3 205/4/3
f 208/4/3 206/4/3 207/4/3
f 211/4/3 210/4/3 209/4/3
f 212/4/3 210/4/3 211/4/3
f 215/4/3 214/4/3 213/4/3
f 216/4/3 214/4/3 215/4/3
f 219/4/3 218/4/3 217/4/3
f 220/4/3 218/4/3 219/4/3
f 223/4/3 222/4/3 221/4/3
f 224/4/3 222/4/3 223/4/3
f 227/4/3 226/4/3 225/4/3
f 228/4/3 226/4/3 227/4/3
f 231/4/3 230/4/3 229/4/3
f 232/4/3 230/4/3 231/4/3
f 235/4/3 234/4/3 233/4/3
f 236/4/3 234/4/3 235/4/3
f 239/2/3 238/2/3 237/2/3
f 240/2/3 238/2/3 239/2/3
f 243/3/3 242/3/3 241/3/3
f 245/3/3 243/3/3 241/3/3
f 246/4/3 244/4/3 243/4/3
f 246/3/3 243/3/3 245/3/3
f 247/4/3 244/4/3 246/4/3
f 251/3/3 249/3/3 248/3/3
f 251/4/3 250/4/3 249/4/3
f 252/4/3 250/4/3 251/4/3
f 253/3/3 251/3/3 248/3/3
f 254/3/3 251/3/3 253/3/3
f 258/4/3 256/4/3 255/4/3
f 259/2/3 257/2/3 256/2/3
f 259/4/3 256/4/3 258/4/3
f 260/2/3 257/2/3 259/2/3
f 264/4/3 262/4/3 261/4/3
f 265/2/3 263/2/3 262/2/3
f 265/4/3 262/4/3 264/4/3
f 266/2/3 263/2/3 265/2/3
f 267/4/4 268/4/4 270/4/4
f 268/2/4 269/2/4 271/2/4
f 270/4/4 268/4/4 271/4/4
f 271/2/4 269/2/4 272/2/4
f 273/4/4 274/4/4 276/4/4
f 274/2/4 275/2/4 277/2/4
f 276/4/4 274/4/4 277/4/4
f 277/2/4 275/2/4 278/2/4
f 279/3/4 280/3/4 281/3/4
f 279/3/4 281/3/4 283/3/4
f 281/4/4 282/4/4 284/4/4
f 283/3/4 281/3/4 284/3/4
f 284/4/4 282/4/4 285/4/4
f 286/3/4 287/3/4 289/3/4
f 287/4/4 288/4/4 289/4/4
f 289/4/4 288/4/4 290/4/4
f 286/3/4 289/3/4 291/3/4
f 291/3/4 289/3/4 292/3/4
f 293/2/4 294/2/4 295/2/4
f 295/2/4 294/2/4 296/2/4
f 297/4/4 298/4/4 299/4/4
f 299/4/4 298/4/4 300/4/4
f 301/4/4 302/4/4 303/4/4
f 303/4/4 302/4/4 304/4/4
f 305/4/4 306/4/4 307/4/4
f 307/4/4 306/4/4 308/4/4
f 309/4/4 310/4/4 311/4/4
f 311/4/4 310/4/4 312/4/4
f 313/4/4 314/4/4 315/4/4
f 315/4/4 314/4/4 316/4/4
f 317/4/4 318/4/4 319/4/4
f 319/4/4 318/4/4 320/4/4
f 321/4/4 322/4/4 323/4/4
f 323/4/4 322/4/4 324/4/4
f 325/4/4 326/4/4 327/4/4
f 327/4/4 326/4/4 328/4/4
f 329/3/4 330/3/4 331/3/4
f 331/3/4 330/3/4 332/3/4
f 333/2/4 334/2/4 337/2/4
f 337/2/4 334/2/4 338/2/4
f 335/3/4 336/3/4 339/3/4
f 339/3/4 336/3/4 340/3/4
f 341/4/4 342/4/4 344/4/4
f 344/4/4 342/4/4 345/4/4
f 342/2/4 343/2/4 346/2/4
f 345/4/4 342/4/4 346/4/4
f 346/2/4 343/2/4 347/2/4
f 344/2/4 345/2/4 348/2/4
f 341/4/4 344/4/4 348/4/4
f 348/2/4 345/2/4 349/2/4
f 341/4/4 348/4/4 350/4/4
f 348/1/4 349/1/4 350/1/4
f 350/1/4 349/1/4 351/1/4
f 341/4/4 350/4/4 352/4/4
f 350/2/4 351/2/4 352/2/4
f 352/2/4 351/2/4 353/2/4
f 341/4/4 352/4/4 354/4/4
f 352/5/4 353/5/4 354/5/4
f 354/5/4 353/5/4 355/5/4
f 354/4/4 355/4/4 358/4/4
f 341/4/4 354/4/4 358/4/4
f 355/4/4 356/4/4 358/4/4
f 356/2/4 357/2/4 359/2/4
f 358/4/4 356/4/4 359/4/4
f 359/2/4 357/2/4 360/2/4
f 365/3/5 362/3/5 361/3/5
f 366/3/5 362/3/5 365/3/5
f 367/3/5 364/3/5 363/3/5
f 368/3/5 364/3/5 367/3/5
f 373/3/5 370/3/5 369/3/5
f 374/3/5 370/3/5 373/3/5
f 375/3/5 372/3/5 371/3/5
f 376/3/5 372/3/5 375/3/5
f 379/4/5 378/4/5 377/4/5
f 380/4/5 378/4/5 379/4/5
f 381/4/5 378/4/5 380/4/5
f 382/4/5 378/4/5 381/4/5
f 383/4/5 379/4/5 377/4/5
f 384/4/5 381/4/5 380/4/5
f 385/4/5 381/4/5 384/4/5
f 386/4/5 378/4/5 382/4/5
f 387/4/5 385/4/5 384/4/5
f 387/4/5 386/4/5 385/4/5
f 387/4/5 383/4/5 377/4/5
f 387/4/5 384/4/5 383/4/5
f 388/4/5 386/4/5 387/4/5
f 389/4/5 386/4/5 388/4/5
f 390/4/5 378/4/5 386/4/5
f 390/4/5 386/4/5 389/4/5
f 391/4/5 387/4/5 377/4/5
f 392/4/5 389/4/5 388/4/5
f 393/4/5 389/4/5 392/4/5
f 394/4/5 378/4/5 390/4/5
f 395/4/5 391/4/5 377/4/5
f 395/4/5 394/4/5 393/4/5
f 395/4/5 393/4/5 392/4/5
f 395/4/5 392/4/5 391/4/5
f 396/4/5 378/4/5 394/4/5
f 396/4/5 394/4/5 395/4/5
f 397/3/6 398/3/6 401/3/6
f 401/3/6 398/3/6 402/3/6
f 399/3/6 400/3/6 403/3/6
f 403/3/6 400/3/6 404/3/6
f 397/3/6 401/3/6 405/3/6
f 405/3/6 401/3/6 406/3/6
f 404/3/6 400/3/6 407/3/6
f 407/3/6 400/3/6 408/3/6
f 409/3/6 410/3/6 413/3/6
f 411/3/6 412/3/6 416/3/6
f 413/3/6 414/3/6 417/3/6
f 409/3/6 413/3/6 417/3/6
f 417/3/6 414/3/6 418/3/6
f 415/3/6 416/3/6 419/3/6
f 416/3/6 412/3/6 420/3/6
f 419/3/6 416/3/6 420/3/6
f 421/2/6 422/2/6 427/2/6
f 424/5/6 425/5/6 428/5/6
f 428/5/6 425/5/6 429/5/6
f 426/4/6 427/4/6 430/4/6
f 427/2/6 422/2/6 431/2/6
f 430/4/6 427/4/6 431/4/6
f 424/5/6 428/5/6 432/5/6
f 429/5/6 425/5/6 433/5/6
f 424/5/6 432/5/6 434/5/6
f 432/5/6 433/5/6 434/5/6
f 433/5/6 425/5/6 435/5/6
f 434/5/6 433/5/6 435/5/6
f 431/2/6 422/2/6 437/2/6
f 436/4/6 437/4/6 438/4/6
f 437/2/6 422/2/6 439/2/6
f 438/4/6 437/4/6 439/4/6
f 424/5/6 434/5/6 440/5/6
f 435/5/6 425/5/6 441/5/6
f 439/2/6 422/2/6 442/2/6
f 422/1/6 423/1/6 443/1/6
f 442/2/6 422/2/6 443/2/6
f 423/2/6 424/2/6 444/2/6
f 443/1/6 423/1/6 444/1/6
f 440/5/6 441/5/6 445/5/6
f 444/2/6 424/2/6 445/2/6
f 424/5/6 440/5/6 445/5/6
f 441/5/6 425/5/6 446/5/6
f 445/5/6 441/5/6 446/5/6
f 447/4/6 448/4/6 451/4/6
f 451/4/6 448/4/6 452/4/6
f 449/4/6 450/4/6 453/4/6
f 453/4/6 450/4/6 454/4/6
f 455/4/6 456/4/6 457/4/6
f 457/4/6 456/4/6 458/4/6
f 459/4/6 460/4/6 461/4/6
f 461/4/6 460/4/6 462/4/6
f 465/4/6 466/4/6 467/4/6
f 467/4/6 466/4/6 468/4/6
f 463/2/6 464/2/6 469/2/6
f 469/2/6 464/2/6 470/2/6
f 473/4/6 474/4/6 475/4/6
f 475/4/6 474/4/6 476/4/6
f 471/2/6 472/2/6 477/2/6
f 477/2/6 472/2/6 478/2/6
f 479/4/6 480/4/6 481/4/6
f 481/4/6 480/4/6 482/4/6
f 483/4/6 484/4/6 485/4/6
f 485/4/6 484/4/6 486/4/6
f 487/4/6 488/4/6 489/4/6
f 489/4/6 488/4/6 490/4/6
f 491/4/6 492/4/6 493/4/6
f 493/4/6 492/4/6 494/4/6
f 495/4/6 496/4/6 497/4/6
f 497/4/6 496/4/6 498/4/6
f 499/2/6 500/2/6 503/2/6
f 503/2/6 500/2/6 504/2/6
f 501/2/6 502/2/6 505/2/6
f 505/2/6 502/2/6 506/2/6
f 507/4/6 508/4/6 509/4/6
f 509/4/6 508/4/6 510/4/6
f 511/2/6 512/2/6 515/2/6
f 515/2/6 512/2/6 516/2/6
f 513/2/6 514/2/6 517/2/6
f 517/2/6 514/2/6 518/2/6
