# MagicaVoxel @ Ephtracy

# group
o 

# material
mtllib Torch.mtl
usemtl palette

# normals
vn -1 0 0
vn 1 0 0
vn 0 0 1
vn 0 0 -1
vn 0 -1 0
vn 0 1 0

# texcoords
vt 0.0644531 0.5
vt 0.0957031 0.5
vt 0.0996094 0.5
vt 0.103516 0.5

# verts
v -0.2 0 0.2
v -0.2 0 -0.2
v -0.2 0.1 0.2
v -0.2 0.1 0.1
v -0.2 0.1 0
v -0.2 0.1 -0.1
v -0.2 0.1 -0.2
v -0.2 0.2 0.2
v -0.2 0.2 0.1
v -0.2 0.2 0
v -0.2 0.2 -0.1
v -0.2 0.2 -0.2
v -0.2 0.3 0.1
v -0.2 0.3 0
v -0.2 0.3 -0.1
v -0.2 0.3 -0.2
v -0.2 0.4 0.2
v -0.2 0.4 0.1
v -0.2 0.4 0
v -0.2 0.4 -0.1
v -0.2 0.4 -0.2
v -0.2 0.5 0.2
v -0.2 0.5 0.1
v -0.2 0.5 -0.1
v -0.2 0.5 -0.2
v -0.2 0.6 0.2
v -0.2 0.6 0.1
v -0.1 -0.5 0.1
v -0.1 -0.5 -0.1
v -0.1 0 0.1
v -0.1 0 -0.1
v -0.1 0.1 0
v -0.1 0.1 -0.1
v -0.1 0.2 0
v -0.1 0.2 -0.1
v -0.1 0.4 0.1
v -0.1 0.4 0
v -0.1 0.5 0.1
v -0.1 0.5 0
v 0 0.2 0.1
v 0 0.2 0
v 0 0.3 0.2
v 0 0.3 0.1
v 0 0.3 0
v 0 0.3 -0.1
v 0 0.3 -0.2
v 0 0.4 0.2
v 0 0.4 0.1
v 0 0.5 -0.1
v 0 0.5 -0.2
v 0.1 0.1 0.2
v 0.1 0.1 0.1
v 0.1 0.2 0.2
v 0.1 0.2 0.1
v 0.1 0.2 0
v 0.1 0.2 -0.1
v 0.1 0.3 0
v 0.1 0.3 -0.1
v 0.1 0.5 0.2
v 0.1 0.5 0.1
v 0.1 0.5 0
v 0.1 0.5 -0.1
v 0.1 0.6 0.2
v 0.1 0.6 0.1
v 0.1 0.6 0
v 0.1 0.6 -0.1
v -0.1 0.2 0.1
v -0.1 0.2 0
v -0.1 0.3 0.2
v -0.1 0.3 0.1
v -0.1 0.3 0
v -0.1 0.3 -0.1
v -0.1 0.4 0.2
v -0.1 0.4 0.1
v -0.1 0.4 0
v -0.1 0.4 -0.1
v -0.1 0.4 -0.2
v -0.1 0.5 0.2
v -0.1 0.5 0.1
v -0.1 0.5 -0.1
v -0.1 0.5 -0.2
v -0.1 0.6 0.2
v -0.1 0.6 0.1
v 0 0.1 0.2
v 0 0.1 0.1
v 0 0.2 0.2
v 0 0.2 0.1
v 0 0.2 0
v 0 0.2 -0.1
v 0 0.3 0
v 0 0.3 -0.1
v 0 0.4 0.1
v 0 0.4 0
v 0 0.5 0.1
v 0 0.5 0
v 0.1 -0.5 0.1
v 0.1 -0.5 -0.1
v 0.1 0 0.1
v 0.1 0 -0.1
v 0.1 0.2 0.2
v 0.1 0.2 0.1
v 0.1 0.3 0.1
v 0.1 0.3 -0.1
v 0.1 0.3 -0.2
v 0.1 0.4 0.2
v 0.1 0.4 0.1
v 0.1 0.5 -0.1
v 0.1 0.5 -0.2
v 0.2 0 0.2
v 0.2 0 -0.2
v 0.2 0.1 0.2
v 0.2 0.1 0.1
v 0.2 0.1 0
v 0.2 0.1 -0.1
v 0.2 0.1 -0.2
v 0.2 0.2 0.2
v 0.2 0.2 0.1
v 0.2 0.2 0
v 0.2 0.2 -0.1
v 0.2 0.2 -0.2
v 0.2 0.3 0.1
v 0.2 0.3 0
v 0.2 0.3 -0.1
v 0.2 0.3 -0.2
v 0.2 0.5 0.2
v 0.2 0.5 0.1
v 0.2 0.5 0
v 0.2 0.5 -0.1
v 0.2 0.6 0.2
v 0.2 0.6 0.1
v 0.2 0.6 0
v 0.2 0.6 -0.1
v -0.2 0 0.2
v -0.2 0.1 0.2
v -0.2 0.2 0.2
v -0.2 0.4 0.2
v -0.2 0.5 0.2
v -0.2 0.6 0.2
v -0.1 0.1 0.2
v -0.1 0.2 0.2
v -0.1 0.3 0.2
v -0.1 0.4 0.2
v -0.1 0.5 0.2
v -0.1 0.6 0.2
v 0 0.1 0.2
v 0 0.2 0.2
v 0 0.3 0.2
v 0 0.4 0.2
v 0.1 0.1 0.2
v 0.1 0.2 0.2
v 0.1 0.4 0.2
v 0.1 0.5 0.2
v 0.1 0.6 0.2
v 0.2 0 0.2
v 0.2 0.1 0.2
v 0.2 0.2 0.2
v 0.2 0.5 0.2
v 0.2 0.6 0.2
v -0.1 -0.5 0.1
v -0.1 0 0.1
v -0.1 0.4 0.1
v -0.1 0.5 0.1
v 0 0.1 0.1
v 0 0.2 0.1
v 0 0.4 0.1
v 0 0.5 0.1
v 0.1 -0.5 0.1
v 0.1 0 0.1
v 0.1 0.1 0.1
v 0.1 0.2 0.1
v 0.1 0.3 0.1
v 0.2 0.2 0.1
v 0.2 0.3 0.1
v -0.2 0.3 0
v -0.2 0.4 0
v -0.1 0.2 0
v -0.1 0.3 0
v -0.1 0.4 0
v 0 0.2 0
v 0 0.3 0
v 0.1 0.5 0
v 0.1 0.6 0
v 0.2 0.5 0
v 0.2 0.6 0
v -0.2 0.1 -0.1
v -0.2 0.2 -0.1
v -0.2 0.4 -0.1
v -0.2 0.5 -0.1
v -0.1 0.1 -0.1
v -0.1 0.2 -0.1
v -0.1 0.4 -0.1
v -0.1 0.5 -0.1
v 0 0.2 -0.1
v 0 0.3 -0.1
v 0 0.5 -0.1
v 0.1 0.2 -0.1
v 0.1 0.3 -0.1
v 0.1 0.5 -0.1
v -0.2 0.3 0.1
v -0.2 0.4 0.1
v -0.2 0.5 0.1
v -0.2 0.6 0.1
v -0.1 0.2 0.1
v -0.1 0.3 0.1
v -0.1 0.4 0.1
v -0.1 0.5 0.1
v -0.1 0.6 0.1
v 0 0.2 0.1
v 0 0.3 0.1
v 0 0.4 0.1
v 0.1 0.3 0.1
v 0.1 0.4 0.1
v 0.1 0.5 0.1
v 0.1 0.6 0.1
v 0.2 0.5 0.1
v 0.2 0.6 0.1
v -0.2 0.1 0
v -0.2 0.2 0
v -0.1 0.1 0
v -0.1 0.2 0
v -0.1 0.4 0
v -0.1 0.5 0
v 0 0.2 0
v 0 0.3 0
v 0 0.4 0
v 0 0.5 0
v 0.1 0.2 0
v 0.1 0.3 0
v -0.2 0.3 -0.1
v -0.2 0.4 -0.1
v -0.1 -0.5 -0.1
v -0.1 0 -0.1
v -0.1 0.3 -0.1
v -0.1 0.4 -0.1
v 0.1 -0.5 -0.1
v 0.1 0 -0.1
v 0.1 0.5 -0.1
v 0.1 0.6 -0.1
v 0.2 0.5 -0.1
v 0.2 0.6 -0.1
v -0.2 0 -0.2
v -0.2 0.1 -0.2
v -0.2 0.2 -0.2
v -0.2 0.3 -0.2
v -0.2 0.4 -0.2
v -0.2 0.5 -0.2
v -0.1 0.1 -0.2
v -0.1 0.2 -0.2
v -0.1 0.4 -0.2
v -0.1 0.5 -0.2
v 0 0.1 -0.2
v 0 0.2 -0.2
v 0 0.3 -0.2
v 0 0.5 -0.2
v 0.1 0.1 -0.2
v 0.1 0.2 -0.2
v 0.1 0.3 -0.2
v 0.1 0.5 -0.2
v 0.2 0 -0.2
v 0.2 0.1 -0.2
v 0.2 0.2 -0.2
v 0.2 0.3 -0.2
v -0.1 -0.5 0.1
v 0.1 -0.5 0.1
v -0.1 -0.5 -0.1
v 0.1 -0.5 -0.1
v -0.2 0 0.2
v 0.2 0 0.2
v -0.1 0 0.1
v 0.1 0 0.1
v -0.1 0 -0.1
v 0.1 0 -0.1
v -0.2 0 -0.2
v 0.2 0 -0.2
v 0 0.2 0.2
v 0.1 0.2 0.2
v 0 0.2 0.1
v 0.1 0.2 0.1
v -0.2 0.2 0
v -0.1 0.2 0
v -0.2 0.2 -0.1
v -0.1 0.2 -0.1
v -0.1 0.4 0.1
v 0 0.4 0.1
v -0.1 0.4 0
v 0 0.4 0
v -0.2 0.4 -0.1
v -0.1 0.4 -0.1
v -0.2 0.4 -0.2
v -0.1 0.4 -0.2
v -0.2 0.5 0.2
v -0.1 0.5 0.2
v 0.1 0.5 0.2
v 0.2 0.5 0.2
v -0.2 0.5 0.1
v -0.1 0.5 0.1
v 0.1 0.5 0.1
v 0.2 0.5 0.1
v 0.1 0.5 0
v 0.2 0.5 0
v 0.1 0.5 -0.1
v 0.2 0.5 -0.1
v 0 0.1 0.2
v 0.1 0.1 0.2
v 0 0.1 0.1
v 0.1 0.1 0.1
v -0.2 0.1 0
v -0.1 0.1 0
v -0.2 0.1 -0.1
v -0.1 0.1 -0.1
v 0.1 0.2 0.2
v 0.2 0.2 0.2
v -0.1 0.2 0.1
v 0 0.2 0.1
v 0.1 0.2 0.1
v 0.2 0.2 0.1
v -0.1 0.2 0
v 0 0.2 0
v 0.1 0.2 0
v 0 0.2 -0.1
v 0.1 0.2 -0.1
v -0.1 0.3 0.2
v 0 0.3 0.2
v -0.2 0.3 0.1
v -0.1 0.3 0.1
v 0 0.3 0.1
v 0.1 0.3 0.1
v 0.2 0.3 0.1
v -0.2 0.3 0
v -0.1 0.3 0
v 0 0.3 0
v 0.1 0.3 0
v 0.2 0.3 0
v -0.2 0.3 -0.1
v -0.1 0.3 -0.1
v 0 0.3 -0.1
v 0.1 0.3 -0.1
v 0.2 0.3 -0.1
v -0.2 0.3 -0.2
v 0 0.3 -0.2
v 0.1 0.3 -0.2
v 0.2 0.3 -0.2
v -0.2 0.4 0.2
v -0.1 0.4 0.2
v 0 0.4 0.2
v 0.1 0.4 0.2
v -0.2 0.4 0.1
v -0.1 0.4 0.1
v 0 0.4 0.1
v 0.1 0.4 0.1
v -0.2 0.4 0
v -0.1 0.4 0
v -0.2 0.4 -0.1
v -0.1 0.4 -0.1
v -0.1 0.5 0.1
v 0 0.5 0.1
v -0.1 0.5 0
v 0 0.5 0
v -0.2 0.5 -0.1
v -0.1 0.5 -0.1
v 0 0.5 -0.1
v 0.1 0.5 -0.1
v -0.2 0.5 -0.2
v -0.1 0.5 -0.2
v 0 0.5 -0.2
v 0.1 0.5 -0.2
v -0.2 0.6 0.2
v -0.1 0.6 0.2
v 0.1 0.6 0.2
v 0.2 0.6 0.2
v -0.2 0.6 0.1
v -0.1 0.6 0.1
v 0.1 0.6 0.1
v 0.2 0.6 0.1
v 0.1 0.6 0
v 0.2 0.6 0
v 0.1 0.6 -0.1
v 0.2 0.6 -0.1

# faces
f 3/1/1 2/1/1 1/1/1
f 4/1/1 2/1/1 3/1/1
f 5/1/1 2/1/1 4/1/1
f 6/1/1 2/1/1 5/1/1
f 7/1/1 2/1/1 6/1/1
f 8/2/1 4/2/1 3/2/1
f 9/3/1 5/3/1 4/3/1
f 9/2/1 4/2/1 8/2/1
f 10/3/1 5/3/1 9/3/1
f 11/2/1 7/2/1 6/2/1
f 12/2/1 7/2/1 11/2/1
f 13/3/1 10/3/1 9/3/1
f 13/4/1 9/4/1 8/4/1
f 14/4/1 11/4/1 10/4/1
f 14/3/1 10/3/1 13/3/1
f 15/3/1 12/3/1 11/3/1
f 15/4/1 11/4/1 14/4/1
f 16/3/1 12/3/1 15/3/1
f 17/4/1 13/4/1 8/4/1
f 18/4/1 13/4/1 17/4/1
f 19/4/1 15/4/1 14/4/1
f 20/4/1 15/4/1 19/4/1
f 24/4/1 21/4/1 20/4/1
f 25/4/1 21/4/1 24/4/1
f 26/4/1 23/4/1 22/4/1
f 27/4/1 23/4/1 26/4/1
f 30/1/1 29/1/1 28/1/1
f 31/1/1 29/1/1 30/1/1
f 34/2/1 33/2/1 32/2/1
f 35/2/1 33/2/1 34/2/1
f 38/4/1 37/4/1 36/4/1
f 39/4/1 37/4/1 38/4/1
f 43/4/1 41/4/1 40/4/1
f 44/4/1 41/4/1 43/4/1
f 47/4/1 43/4/1 42/4/1
f 48/4/1 43/4/1 47/4/1
f 49/4/1 46/4/1 45/4/1
f 50/4/1 46/4/1 49/4/1
f 53/2/1 52/2/1 51/2/1
f 54/2/1 52/2/1 53/2/1
f 57/3/1 56/3/1 55/3/1
f 58/3/1 56/3/1 57/3/1
f 63/4/1 60/4/1 59/4/1
f 64/4/1 60/4/1 63/4/1
f 65/4/1 62/4/1 61/4/1
f 66/4/1 62/4/1 65/4/1
f 67/3/2 68/3/2 70/3/2
f 70/3/2 68/3/2 71/3/2
f 69/4/2 70/4/2 73/4/2
f 73/4/2 70/4/2 74/4/2
f 71/4/2 72/4/2 75/4/2
f 75/4/2 72/4/2 76/4/2
f 76/4/2 77/4/2 80/4/2
f 80/4/2 77/4/2 81/4/2
f 78/4/2 79/4/2 82/4/2
f 82/4/2 79/4/2 83/4/2
f 84/3/2 85/3/2 86/3/2
f 86/3/2 85/3/2 87/3/2
f 88/4/2 89/4/2 90/4/2
f 90/4/2 89/4/2 91/4/2
f 92/4/2 93/4/2 94/4/2
f 94/4/2 93/4/2 95/4/2
f 96/1/2 97/1/2 98/1/2
f 98/1/2 97/1/2 99/1/2
f 100/4/2 101/4/2 102/4/2
f 100/4/2 102/4/2 105/4/2
f 105/4/2 102/4/2 106/4/2
f 103/4/2 104/4/2 107/4/2
f 107/4/2 104/4/2 108/4/2
f 109/1/2 110/1/2 111/1/2
f 111/1/2 110/1/2 112/1/2
f 112/1/2 110/1/2 113/1/2
f 113/1/2 110/1/2 114/1/2
f 114/1/2 110/1/2 115/1/2
f 111/2/2 112/2/2 116/2/2
f 112/3/2 113/3/2 117/3/2
f 116/2/2 112/2/2 117/2/2
f 113/2/2 114/2/2 118/2/2
f 117/3/2 113/3/2 118/3/2
f 114/3/2 115/3/2 119/3/2
f 118/2/2 114/2/2 119/2/2
f 119/3/2 115/3/2 120/3/2
f 117/4/2 118/4/2 121/4/2
f 118/3/2 119/3/2 122/3/2
f 121/4/2 118/4/2 122/4/2
f 119/4/2 120/4/2 123/4/2
f 122/3/2 119/3/2 123/3/2
f 123/4/2 120/4/2 124/4/2
f 125/4/2 126/4/2 129/4/2
f 129/4/2 126/4/2 130/4/2
f 127/4/2 128/4/2 131/4/2
f 131/4/2 128/4/2 132/4/2
f 139/1/3 134/1/3 133/1/3
f 139/2/3 135/2/3 134/2/3
f 140/4/3 136/4/3 135/4/3
f 140/2/3 135/2/3 139/2/3
f 141/4/3 136/4/3 140/4/3
f 142/4/3 136/4/3 141/4/3
f 143/4/3 138/4/3 137/4/3
f 144/4/3 138/4/3 143/4/3
f 145/1/3 139/1/3 133/1/3
f 145/3/3 140/3/3 139/3/3
f 145/3/3 141/3/3 140/3/3
f 146/3/3 141/3/3 145/3/3
f 147/3/3 141/3/3 146/3/3
f 149/1/3 145/1/3 133/1/3
f 150/4/3 148/4/3 147/4/3
f 150/4/3 147/4/3 146/4/3
f 151/4/3 148/4/3 150/4/3
f 154/1/3 149/1/3 133/1/3
f 155/2/3 150/2/3 149/2/3
f 155/1/3 149/1/3 154/1/3
f 156/2/3 150/2/3 155/2/3
f 157/4/3 153/4/3 152/4/3
f 158/4/3 153/4/3 157/4/3
f 165/4/3 162/4/3 161/4/3
f 166/4/3 162/4/3 165/4/3
f 167/1/3 160/1/3 159/1/3
f 168/1/3 160/1/3 167/1/3
f 169/2/3 164/2/3 163/2/3
f 170/2/3 164/2/3 169/2/3
f 172/4/3 171/4/3 170/4/3
f 173/4/3 171/4/3 172/4/3
f 177/4/3 175/4/3 174/4/3
f 178/4/3 175/4/3 177/4/3
f 179/4/3 177/4/3 176/4/3
f 180/4/3 177/4/3 179/4/3
f 183/4/3 182/4/3 181/4/3
f 184/4/3 182/4/3 183/4/3
f 189/2/3 186/2/3 185/2/3
f 190/2/3 186/2/3 189/2/3
f 191/4/3 188/4/3 187/4/3
f 192/4/3 188/4/3 191/4/3
f 196/4/3 194/4/3 193/4/3
f 196/4/3 195/4/3 194/4/3
f 197/4/3 195/4/3 196/4/3
f 198/4/3 195/4/3 197/4/3
f 199/4/4 200/4/4 204/4/4
f 204/4/4 200/4/4 205/4/4
f 201/4/4 202/4/4 206/4/4
f 206/4/4 202/4/4 207/4/4
f 203/3/4 204/3/4 208/3/4
f 208/3/4 204/3/4 209/3/4
f 209/4/4 210/4/4 211/4/4
f 211/4/4 210/4/4 212/4/4
f 213/4/4 214/4/4 215/4/4
f 215/4/4 214/4/4 216/4/4
f 217/3/4 218/3/4 219/3/4
f 219/3/4 218/3/4 220/3/4
f 221/4/4 222/4/4 225/4/4
f 225/4/4 222/4/4 226/4/4
f 223/4/4 224/4/4 227/4/4
f 227/4/4 224/4/4 228/4/4
f 229/4/4 230/4/4 233/4/4
f 233/4/4 230/4/4 234/4/4
f 231/1/4 232/1/4 235/1/4
f 235/1/4 232/1/4 236/1/4
f 237/4/4 238/4/4 239/4/4
f 239/4/4 238/4/4 240/4/4
f 241/1/4 242/1/4 247/1/4
f 242/2/4 243/2/4 247/2/4
f 243/3/4 244/3/4 248/3/4
f 247/2/4 243/2/4 248/2/4
f 245/4/4 246/4/4 249/4/4
f 249/4/4 246/4/4 250/4/4
f 241/1/4 247/1/4 251/1/4
f 247/3/4 248/3/4 251/3/4
f 248/3/4 244/3/4 252/3/4
f 251/3/4 248/3/4 252/3/4
f 252/3/4 244/3/4 253/3/4
f 241/1/4 251/1/4 255/1/4
f 251/2/4 252/2/4 255/2/4
f 253/4/4 254/4/4 256/4/4
f 255/2/4 252/2/4 256/2/4
f 252/4/4 253/4/4 256/4/4
f 256/4/4 254/4/4 257/4/4
f 257/4/4 254/4/4 258/4/4
f 241/1/4 255/1/4 259/1/4
f 255/3/4 256/3/4 260/3/4
f 259/1/4 255/1/4 260/1/4
f 256/4/4 257/4/4 261/4/4
f 260/3/4 256/3/4 261/3/4
f 261/4/4 257/4/4 262/4/4
f 265/1/5 264/1/5 263/1/5
f 266/1/5 264/1/5 265/1/5
f 269/1/5 268/1/5 267/1/5
f 270/1/5 268/1/5 269/1/5
f 271/1/5 269/1/5 267/1/5
f 272/1/5 268/1/5 270/1/5
f 273/1/5 271/1/5 267/1/5
f 273/1/5 272/1/5 271/1/5
f 274/1/5 268/1/5 272/1/5
f 274/1/5 272/1/5 273/1/5
f 277/4/5 276/4/5 275/4/5
f 278/4/5 276/4/5 277/4/5
f 281/4/5 280/4/5 279/4/5
f 282/4/5 280/4/5 281/4/5
f 285/4/5 284/4/5 283/4/5
f 286/4/5 284/4/5 285/4/5
f 289/4/5 288/4/5 287/4/5
f 290/4/5 288/4/5 289/4/5
f 295/4/5 292/4/5 291/4/5
f 296/4/5 292/4/5 295/4/5
f 297/4/5 294/4/5 293/4/5
f 298/4/5 294/4/5 297/4/5
f 301/4/5 300/4/5 299/4/5
f 302/4/5 300/4/5 301/4/5
f 303/1/6 304/1/6 305/1/6
f 305/1/6 304/1/6 306/1/6
f 307/1/6 308/1/6 309/1/6
f 309/1/6 308/1/6 310/1/6
f 311/2/6 312/2/6 315/2/6
f 315/2/6 312/2/6 316/2/6
f 313/3/6 314/3/6 317/3/6
f 317/3/6 314/3/6 318/3/6
f 318/3/6 319/3/6 320/3/6
f 320/3/6 319/3/6 321/3/6
f 322/3/6 323/3/6 325/3/6
f 325/3/6 323/3/6 326/3/6
f 324/3/6 325/3/6 329/3/6
f 329/3/6 325/3/6 330/3/6
f 327/4/6 328/4/6 331/4/6
f 326/4/6 327/4/6 331/4/6
f 331/4/6 328/4/6 332/4/6
f 332/4/6 328/4/6 333/4/6
f 330/4/6 331/4/6 335/4/6
f 335/4/6 331/4/6 336/4/6
f 332/3/6 333/3/6 337/3/6
f 337/3/6 333/3/6 338/3/6
f 335/3/6 336/3/6 339/3/6
f 334/3/6 335/3/6 339/3/6
f 339/3/6 336/3/6 340/3/6
f 337/4/6 338/4/6 341/4/6
f 341/4/6 338/4/6 342/4/6
f 343/4/6 344/4/6 347/4/6
f 347/4/6 344/4/6 348/4/6
f 345/4/6 346/4/6 349/4/6
f 349/4/6 346/4/6 350/4/6
f 351/4/6 352/4/6 353/4/6
f 353/4/6 352/4/6 354/4/6
f 355/4/6 356/4/6 357/4/6
f 357/4/6 356/4/6 358/4/6
f 359/4/6 360/4/6 363/4/6
f 363/4/6 360/4/6 364/4/6
f 361/4/6 362/4/6 365/4/6
f 365/4/6 362/4/6 366/4/6
f 367/4/6 368/4/6 371/4/6
f 371/4/6 368/4/6 372/4/6
f 369/4/6 370/4/6 373/4/6
f 373/4/6 370/4/6 374/4/6
f 375/4/6 376/4/6 377/4/6
f 377/4/6 376/4/6 378/4/6
