# MagicaVoxel @ Ephtracy

# group
o 

# material
mtllib WallCorner.mtl
usemtl palette

# normals
vn -1 0 0
vn 1 0 0
vn 0 0 1
vn 0 0 -1
vn 0 -1 0
vn 0 1 0

# texcoords
vt 0.00195312 0.5
vt 0.00585938 0.5

# verts
v -0.75 -3 0.75
v -0.75 -3 -0.75
v -0.75 -2.4 0.75
v -0.75 -2.4 -0.75
v -0.75 -2.2 0.75
v -0.75 -2.2 -0.45
v -0.75 -2.2 -0.55
v -0.75 -2.2 -0.75
v -0.75 -1.2 0.75
v -0.75 -1.2 -0.45
v -0.75 -1.2 -0.55
v -0.75 -1.2 -0.75
v -0.75 -1 0.75
v -0.75 -1 0.15
v -0.75 -1 0.05
v -0.75 -1 -0.75
v -0.75 0 0.75
v -0.75 0 0.15
v -0.75 0 0.05
v -0.75 0 -0.75
v -0.75 0.2 0.75
v -0.75 0.2 -0.45
v -0.75 0.2 -0.55
v -0.75 0.2 -0.75
v -0.75 1.2 0.75
v -0.75 1.2 -0.45
v -0.75 1.2 -0.55
v -0.75 1.2 -0.75
v -0.75 1.4 0.75
v -0.75 1.4 0.15
v -0.75 1.4 0.05
v -0.75 1.4 -0.75
v -0.75 2.4 0.75
v -0.75 2.4 0.15
v -0.75 2.4 0.05
v -0.75 2.4 -0.75
v -0.75 2.6 0.75
v -0.75 2.6 -0.75
v -0.75 3 0.75
v -0.75 3 -0.75
v -0.65 -2.4 0.75
v -0.65 -2.4 -0.65
v -0.65 -2.2 0.75
v -0.65 -2.2 -0.45
v -0.65 -2.2 -0.55
v -0.65 -2.2 -0.65
v -0.65 -1.2 0.75
v -0.65 -1.2 -0.45
v -0.65 -1.2 -0.55
v -0.65 -1.2 -0.65
v -0.65 -1 0.75
v -0.65 -1 0.15
v -0.65 -1 0.05
v -0.65 -1 -0.65
v -0.65 0 0.75
v -0.65 0 0.15
v -0.65 0 0.05
v -0.65 0 -0.65
v -0.65 0.2 0.75
v -0.65 0.2 -0.45
v -0.65 0.2 -0.55
v -0.65 0.2 -0.65
v -0.65 1.2 0.75
v -0.65 1.2 -0.45
v -0.65 1.2 -0.55
v -0.65 1.2 -0.65
v -0.65 1.4 0.75
v -0.65 1.4 0.15
v -0.65 1.4 0.05
v -0.65 1.4 -0.65
v -0.65 2.4 0.75
v -0.65 2.4 0.15
v -0.65 2.4 0.05
v -0.65 2.4 -0.65
v -0.65 2.6 0.75
v -0.65 2.6 -0.65
v -0.15 -1 -0.65
v -0.15 -1 -0.75
v -0.15 0 -0.65
v -0.15 0 -0.75
v -0.15 1.4 -0.65
v -0.15 1.4 -0.75
v -0.15 2.4 -0.65
v -0.15 2.4 -0.75
v 0.65 -2.2 -0.65
v 0.65 -2.2 -0.75
v 0.65 -1.2 -0.65
v 0.65 -1.2 -0.75
v 0.65 0.2 -0.65
v 0.65 0.2 -0.75
v 0.65 1.2 -0.65
v 0.65 1.2 -0.75
v -0.25 -1 -0.65
v -0.25 -1 -0.75
v -0.25 0 -0.65
v -0.25 0 -0.75
v -0.25 1.4 -0.65
v -0.25 1.4 -0.75
v -0.25 2.4 -0.65
v -0.25 2.4 -0.75
v 0.55 -2.2 -0.65
v 0.55 -2.2 -0.75
v 0.55 -1.2 -0.65
v 0.55 -1.2 -0.75
v 0.55 0.2 -0.65
v 0.55 0.2 -0.75
v 0.55 1.2 -0.65
v 0.55 1.2 -0.75
v 0.65 -2.4 0.75
v 0.65 -2.4 0.65
v 0.65 -2.2 0.75
v 0.65 -2.2 0.65
v 0.65 -1.2 0.75
v 0.65 -1.2 0.65
v 0.65 -1 0.75
v 0.65 -1 0.65
v 0.65 0 0.75
v 0.65 0 0.65
v 0.65 0.2 0.75
v 0.65 0.2 0.65
v 0.65 1.2 0.75
v 0.65 1.2 0.65
v 0.65 1.4 0.75
v 0.65 1.4 0.65
v 0.65 2.4 0.75
v 0.65 2.4 0.65
v 0.65 2.6 0.75
v 0.65 2.6 0.65
v 0.75 -3 0.75
v 0.75 -3 -0.75
v 0.75 -2.4 0.75
v 0.75 -2.4 0.65
v 0.75 -2.4 -0.65
v 0.75 -2.4 -0.75
v 0.75 -2.2 0.75
v 0.75 -2.2 0.65
v 0.75 -2.2 -0.65
v 0.75 -2.2 -0.75
v 0.75 -1.2 0.75
v 0.75 -1.2 0.65
v 0.75 -1.2 -0.65
v 0.75 -1.2 -0.75
v 0.75 -1 0.75
v 0.75 -1 0.65
v 0.75 -1 -0.65
v 0.75 -1 -0.75
v 0.75 0 0.75
v 0.75 0 0.65
v 0.75 0 -0.65
v 0.75 0 -0.75
v 0.75 0.2 0.75
v 0.75 0.2 0.65
v 0.75 0.2 -0.65
v 0.75 0.2 -0.75
v 0.75 1.2 0.75
v 0.75 1.2 0.65
v 0.75 1.2 -0.65
v 0.75 1.2 -0.75
v 0.75 1.4 0.75
v 0.75 1.4 0.65
v 0.75 1.4 -0.65
v 0.75 1.4 -0.75
v 0.75 2.4 0.75
v 0.75 2.4 0.65
v 0.75 2.4 -0.65
v 0.75 2.4 -0.75
v 0.75 2.6 0.75
v 0.75 2.6 0.65
v 0.75 2.6 -0.65
v 0.75 2.6 -0.75
v 0.75 3 0.75
v 0.75 3 -0.75
v -0.75 -3 0.75
v -0.75 -2.4 0.75
v -0.75 -2.2 0.75
v -0.75 -1.2 0.75
v -0.75 -1 0.75
v -0.75 0 0.75
v -0.75 0.2 0.75
v -0.75 1.2 0.75
v -0.75 1.4 0.75
v -0.75 2.4 0.75
v -0.75 2.6 0.75
v -0.75 3 0.75
v -0.65 -2.4 0.75
v -0.65 -2.2 0.75
v -0.65 -1.2 0.75
v -0.65 -1 0.75
v -0.65 0 0.75
v -0.65 0.2 0.75
v -0.65 1.2 0.75
v -0.65 1.4 0.75
v -0.65 2.4 0.75
v -0.65 2.6 0.75
v 0.65 -2.4 0.75
v 0.65 -2.2 0.75
v 0.65 -1.2 0.75
v 0.65 -1 0.75
v 0.65 0 0.75
v 0.65 0.2 0.75
v 0.65 1.2 0.75
v 0.65 1.4 0.75
v 0.65 2.4 0.75
v 0.65 2.6 0.75
v 0.75 -3 0.75
v 0.75 -2.4 0.75
v 0.75 -2.2 0.75
v 0.75 -1.2 0.75
v 0.75 -1 0.75
v 0.75 0 0.75
v 0.75 0.2 0.75
v 0.75 1.2 0.75
v 0.75 1.4 0.75
v 0.75 2.4 0.75
v 0.75 2.6 0.75
v 0.75 3 0.75
v 0.65 -2.4 0.65
v 0.65 -2.2 0.65
v 0.65 -1.2 0.65
v 0.65 -1 0.65
v 0.65 0 0.65
v 0.65 0.2 0.65
v 0.65 1.2 0.65
v 0.65 1.4 0.65
v 0.65 2.4 0.65
v 0.65 2.6 0.65
v 0.75 -2.4 0.65
v 0.75 -2.2 0.65
v 0.75 -1.2 0.65
v 0.75 -1 0.65
v 0.75 0 0.65
v 0.75 0.2 0.65
v 0.75 1.2 0.65
v 0.75 1.4 0.65
v 0.75 2.4 0.65
v 0.75 2.6 0.65
v -0.75 -1 0.05
v -0.75 0 0.05
v -0.75 1.4 0.05
v -0.75 2.4 0.05
v -0.65 -1 0.05
v -0.65 0 0.05
v -0.65 1.4 0.05
v -0.65 2.4 0.05
v -0.75 -2.2 -0.55
v -0.75 -1.2 -0.55
v -0.75 0.2 -0.55
v -0.75 1.2 -0.55
v -0.65 -2.2 -0.55
v -0.65 -1.2 -0.55
v -0.65 0.2 -0.55
v -0.65 1.2 -0.55
v -0.75 -1 0.15
v -0.75 0 0.15
v -0.75 1.4 0.15
v -0.75 2.4 0.15
v -0.65 -1 0.15
v -0.65 0 0.15
v -0.65 1.4 0.15
v -0.65 2.4 0.15
v -0.75 -2.2 -0.45
v -0.75 -1.2 -0.45
v -0.75 0.2 -0.45
v -0.75 1.2 -0.45
v -0.65 -2.2 -0.45
v -0.65 -1.2 -0.45
v -0.65 0.2 -0.45
v -0.65 1.2 -0.45
v -0.65 -2.4 -0.65
v -0.65 -2.2 -0.65
v -0.65 -1.2 -0.65
v -0.65 -1 -0.65
v -0.65 0 -0.65
v -0.65 0.2 -0.65
v -0.65 1.2 -0.65
v -0.65 1.4 -0.65
v -0.65 2.4 -0.65
v -0.65 2.6 -0.65
v -0.25 -1 -0.65
v -0.25 0 -0.65
v -0.25 1.4 -0.65
v -0.25 2.4 -0.65
v -0.15 -1 -0.65
v -0.15 0 -0.65
v -0.15 1.4 -0.65
v -0.15 2.4 -0.65
v 0.55 -2.2 -0.65
v 0.55 -1.2 -0.65
v 0.55 0.2 -0.65
v 0.55 1.2 -0.65
v 0.65 -2.2 -0.65
v 0.65 -1.2 -0.65
v 0.65 0.2 -0.65
v 0.65 1.2 -0.65
v 0.75 -2.4 -0.65
v 0.75 -2.2 -0.65
v 0.75 -1.2 -0.65
v 0.75 -1 -0.65
v 0.75 0 -0.65
v 0.75 0.2 -0.65
v 0.75 1.2 -0.65
v 0.75 1.4 -0.65
v 0.75 2.4 -0.65
v 0.75 2.6 -0.65
v -0.75 -3 -0.75
v -0.75 -2.4 -0.75
v -0.75 -2.2 -0.75
v -0.75 -1.2 -0.75
v -0.75 -1 -0.75
v -0.75 0 -0.75
v -0.75 0.2 -0.75
v -0.75 1.2 -0.75
v -0.75 1.4 -0.75
v -0.75 2.4 -0.75
v -0.75 2.6 -0.75
v -0.75 3 -0.75
v -0.25 -1 -0.75
v -0.25 0 -0.75
v -0.25 1.4 -0.75
v -0.25 2.4 -0.75
v -0.15 -1 -0.75
v -0.15 0 -0.75
v -0.15 1.4 -0.75
v -0.15 2.4 -0.75
v 0.55 -2.2 -0.75
v 0.55 -1.2 -0.75
v 0.55 0.2 -0.75
v 0.55 1.2 -0.75
v 0.65 -2.2 -0.75
v 0.65 -1.2 -0.75
v 0.65 0.2 -0.75
v 0.65 1.2 -0.75
v 0.75 -3 -0.75
v 0.75 -2.4 -0.75
v 0.75 -2.2 -0.75
v 0.75 -1.2 -0.75
v 0.75 -1 -0.75
v 0.75 0 -0.75
v 0.75 0.2 -0.75
v 0.75 1.2 -0.75
v 0.75 1.4 -0.75
v 0.75 2.4 -0.75
v 0.75 2.6 -0.75
v 0.75 3 -0.75
v -0.75 -3 0.75
v 0.75 -3 0.75
v -0.75 -3 -0.75
v 0.75 -3 -0.75
v -0.75 -2.2 0.75
v -0.65 -2.2 0.75
v 0.65 -2.2 0.75
v 0.75 -2.2 0.75
v 0.65 -2.2 0.65
v 0.75 -2.2 0.65
v -0.75 -2.2 -0.45
v -0.65 -2.2 -0.45
v -0.75 -2.2 -0.55
v -0.65 -2.2 -0.55
v -0.65 -2.2 -0.65
v 0.55 -2.2 -0.65
v 0.65 -2.2 -0.65
v 0.75 -2.2 -0.65
v -0.75 -2.2 -0.75
v 0.55 -2.2 -0.75
v 0.65 -2.2 -0.75
v 0.75 -2.2 -0.75
v -0.75 -1 0.75
v -0.65 -1 0.75
v 0.65 -1 0.75
v 0.75 -1 0.75
v 0.65 -1 0.65
v 0.75 -1 0.65
v -0.75 -1 0.15
v -0.65 -1 0.15
v -0.75 -1 0.05
v -0.65 -1 0.05
v -0.65 -1 -0.65
v -0.25 -1 -0.65
v -0.15 -1 -0.65
v 0.75 -1 -0.65
v -0.75 -1 -0.75
v -0.25 -1 -0.75
v -0.15 -1 -0.75
v 0.75 -1 -0.75
v -0.75 0.2 0.75
v -0.65 0.2 0.75
v 0.65 0.2 0.75
v 0.75 0.2 0.75
v 0.65 0.2 0.65
v 0.75 0.2 0.65
v -0.75 0.2 -0.45
v -0.65 0.2 -0.45
v -0.75 0.2 -0.55
v -0.65 0.2 -0.55
v -0.65 0.2 -0.65
v 0.55 0.2 -0.65
v 0.65 0.2 -0.65
v 0.75 0.2 -0.65
v -0.75 0.2 -0.75
v 0.55 0.2 -0.75
v 0.65 0.2 -0.75
v 0.75 0.2 -0.75
v -0.75 1.4 0.75
v -0.65 1.4 0.75
v 0.65 1.4 0.75
v 0.75 1.4 0.75
v 0.65 1.4 0.65
v 0.75 1.4 0.65
v -0.75 1.4 0.15
v -0.65 1.4 0.15
v -0.75 1.4 0.05
v -0.65 1.4 0.05
v -0.65 1.4 -0.65
v -0.25 1.4 -0.65
v -0.15 1.4 -0.65
v 0.75 1.4 -0.65
v -0.75 1.4 -0.75
v -0.25 1.4 -0.75
v -0.15 1.4 -0.75
v 0.75 1.4 -0.75
v -0.75 2.6 0.75
v -0.65 2.6 0.75
v 0.65 2.6 0.75
v 0.75 2.6 0.75
v 0.65 2.6 0.65
v 0.75 2.6 0.65
v -0.65 2.6 -0.65
v 0.75 2.6 -0.65
v -0.75 2.6 -0.75
v 0.75 2.6 -0.75
v -0.75 -2.4 0.75
v -0.65 -2.4 0.75
v 0.65 -2.4 0.75
v 0.75 -2.4 0.75
v 0.65 -2.4 0.65
v 0.75 -2.4 0.65
v -0.65 -2.4 -0.65
v 0.75 -2.4 -0.65
v -0.75 -2.4 -0.75
v 0.75 -2.4 -0.75
v -0.75 -1.2 0.75
v -0.65 -1.2 0.75
v 0.65 -1.2 0.75
v 0.75 -1.2 0.75
v 0.65 -1.2 0.65
v 0.75 -1.2 0.65
v -0.75 -1.2 -0.45
v -0.65 -1.2 -0.45
v -0.75 -1.2 -0.55
v -0.65 -1.2 -0.55
v -0.65 -1.2 -0.65
v 0.55 -1.2 -0.65
v 0.65 -1.2 -0.65
v 0.75 -1.2 -0.65
v -0.75 -1.2 -0.75
v 0.55 -1.2 -0.75
v 0.65 -1.2 -0.75
v 0.75 -1.2 -0.75
v -0.75 0 0.75
v -0.65 0 0.75
v 0.65 0 0.75
v 0.75 0 0.75
v 0.65 0 0.65
v 0.75 0 0.65
v -0.75 0 0.15
v -0.65 0 0.15
v -0.75 0 0.05
v -0.65 0 0.05
v -0.65 0 -0.65
v -0.25 0 -0.65
v -0.15 0 -0.65
v 0.75 0 -0.65
v -0.75 0 -0.75
v -0.25 0 -0.75
v -0.15 0 -0.75
v 0.75 0 -0.75
v -0.75 1.2 0.75
v -0.65 1.2 0.75
v 0.65 1.2 0.75
v 0.75 1.2 0.75
v 0.65 1.2 0.65
v 0.75 1.2 0.65
v -0.75 1.2 -0.45
v -0.65 1.2 -0.45
v -0.75 1.2 -0.55
v -0.65 1.2 -0.55
v -0.65 1.2 -0.65
v 0.55 1.2 -0.65
v 0.65 1.2 -0.65
v 0.75 1.2 -0.65
v -0.75 1.2 -0.75
v 0.55 1.2 -0.75
v 0.65 1.2 -0.75
v 0.75 1.2 -0.75
v -0.75 2.4 0.75
v -0.65 2.4 0.75
v 0.65 2.4 0.75
v 0.75 2.4 0.75
v 0.65 2.4 0.65
v 0.75 2.4 0.65
v -0.75 2.4 0.15
v -0.65 2.4 0.15
v -0.75 2.4 0.05
v -0.65 2.4 0.05
v -0.65 2.4 -0.65
v -0.25 2.4 -0.65
v -0.15 2.4 -0.65
v 0.75 2.4 -0.65
v -0.75 2.4 -0.75
v -0.25 2.4 -0.75
v -0.15 2.4 -0.75
v 0.75 2.4 -0.75
v -0.75 3 0.75
v 0.75 3 0.75
v -0.75 3 -0.75
v 0.75 3 -0.75

# faces
f 3/1/1 2/1/1 1/1/1
f 4/1/1 2/1/1 3/1/1
f 9/1/1 6/1/1 5/1/1
f 10/1/1 6/1/1 9/1/1
f 11/1/1 8/1/1 7/1/1
f 12/1/1 8/1/1 11/1/1
f 17/1/1 14/1/1 13/1/1
f 18/1/1 14/1/1 17/1/1
f 19/1/1 16/1/1 15/1/1
f 20/1/1 16/1/1 19/1/1
f 25/1/1 22/1/1 21/1/1
f 26/1/1 22/1/1 25/1/1
f 27/1/1 24/1/1 23/1/1
f 28/1/1 24/1/1 27/1/1
f 33/1/1 30/1/1 29/1/1
f 34/1/1 30/1/1 33/1/1
f 35/1/1 32/1/1 31/1/1
f 36/1/1 32/1/1 35/1/1
f 39/1/1 38/1/1 37/1/1
f 40/1/1 38/1/1 39/1/1
f 43/2/1 42/2/1 41/2/1
f 44/2/1 42/2/1 43/2/1
f 45/2/1 42/2/1 44/2/1
f 46/2/1 42/2/1 45/2/1
f 48/2/1 45/2/1 44/2/1
f 49/2/1 45/2/1 48/2/1
f 51/2/1 48/2/1 47/2/1
f 51/2/1 50/2/1 49/2/1
f 51/2/1 49/2/1 48/2/1
f 52/2/1 50/2/1 51/2/1
f 53/2/1 50/2/1 52/2/1
f 54/2/1 50/2/1 53/2/1
f 56/2/1 53/2/1 52/2/1
f 57/2/1 53/2/1 56/2/1
f 59/2/1 56/2/1 55/2/1
f 59/2/1 58/2/1 57/2/1
f 59/2/1 57/2/1 56/2/1
f 60/2/1 58/2/1 59/2/1
f 61/2/1 58/2/1 60/2/1
f 62/2/1 58/2/1 61/2/1
f 64/2/1 61/2/1 60/2/1
f 65/2/1 61/2/1 64/2/1
f 67/2/1 64/2/1 63/2/1
f 67/2/1 66/2/1 65/2/1
f 67/2/1 65/2/1 64/2/1
f 68/2/1 66/2/1 67/2/1
f 69/2/1 66/2/1 68/2/1
f 70/2/1 66/2/1 69/2/1
f 72/2/1 69/2/1 68/2/1
f 73/2/1 69/2/1 72/2/1
f 75/2/1 72/2/1 71/2/1
f 75/2/1 74/2/1 73/2/1
f 75/2/1 73/2/1 72/2/1
f 76/2/1 74/2/1 75/2/1
f 79/1/1 78/1/1 77/1/1
f 80/1/1 78/1/1 79/1/1
f 83/1/1 82/1/1 81/1/1
f 84/1/1 82/1/1 83/1/1
f 87/1/1 86/1/1 85/1/1
f 88/1/1 86/1/1 87/1/1
f 91/1/1 90/1/1 89/1/1
f 92/1/1 90/1/1 91/1/1
f 93/1/2 94/1/2 95/1/2
f 95/1/2 94/1/2 96/1/2
f 97/1/2 98/1/2 99/1/2
f 99/1/2 98/1/2 100/1/2
f 101/1/2 102/1/2 103/1/2
f 103/1/2 102/1/2 104/1/2
f 105/1/2 106/1/2 107/1/2
f 107/1/2 106/1/2 108/1/2
f 109/2/2 110/2/2 111/2/2
f 111/2/2 110/2/2 112/2/2
f 113/2/2 114/2/2 115/2/2
f 115/2/2 114/2/2 116/2/2
f 117/2/2 118/2/2 119/2/2
f 119/2/2 118/2/2 120/2/2
f 121/2/2 122/2/2 123/2/2
f 123/2/2 122/2/2 124/2/2
f 125/2/2 126/2/2 127/2/2
f 127/2/2 126/2/2 128/2/2
f 129/1/2 130/1/2 131/1/2
f 131/1/2 130/1/2 132/1/2
f 132/1/2 130/1/2 133/1/2
f 133/1/2 130/1/2 134/1/2
f 132/2/2 133/2/2 136/2/2
f 136/2/2 133/2/2 137/2/2
f 135/1/2 136/1/2 139/1/2
f 137/1/2 138/1/2 139/1/2
f 136/1/2 137/1/2 139/1/2
f 139/1/2 138/1/2 140/1/2
f 140/1/2 138/1/2 141/1/2
f 141/1/2 138/1/2 142/1/2
f 140/2/2 141/2/2 144/2/2
f 144/2/2 141/2/2 145/2/2
f 143/1/2 144/1/2 147/1/2
f 145/1/2 146/1/2 147/1/2
f 144/1/2 145/1/2 147/1/2
f 147/1/2 146/1/2 148/1/2
f 148/1/2 146/1/2 149/1/2
f 149/1/2 146/1/2 150/1/2
f 148/2/2 149/2/2 152/2/2
f 152/2/2 149/2/2 153/2/2
f 151/1/2 152/1/2 155/1/2
f 153/1/2 154/1/2 155/1/2
f 152/1/2 153/1/2 155/1/2
f 155/1/2 154/1/2 156/1/2
f 156/1/2 154/1/2 157/1/2
f 157/1/2 154/1/2 158/1/2
f 156/2/2 157/2/2 160/2/2
f 160/2/2 157/2/2 161/2/2
f 159/1/2 160/1/2 163/1/2
f 161/1/2 162/1/2 163/1/2
f 160/1/2 161/1/2 163/1/2
f 163/1/2 162/1/2 164/1/2
f 164/1/2 162/1/2 165/1/2
f 165/1/2 162/1/2 166/1/2
f 164/2/2 165/2/2 168/2/2
f 168/2/2 165/2/2 169/2/2
f 167/1/2 168/1/2 171/1/2
f 169/1/2 170/1/2 171/1/2
f 168/1/2 169/1/2 171/1/2
f 171/1/2 170/1/2 172/1/2
f 185/1/3 174/1/3 173/1/3
f 186/1/3 176/1/3 175/1/3
f 187/1/3 176/1/3 186/1/3
f 188/1/3 178/1/3 177/1/3
f 189/1/3 178/1/3 188/1/3
f 190/1/3 180/1/3 179/1/3
f 191/1/3 180/1/3 190/1/3
f 192/1/3 182/1/3 181/1/3
f 193/1/3 182/1/3 192/1/3
f 194/1/3 184/1/3 183/1/3
f 195/1/3 185/1/3 173/1/3
f 195/2/3 186/2/3 185/2/3
f 196/1/3 187/1/3 186/1/3
f 196/2/3 186/2/3 195/2/3
f 197/2/3 188/2/3 187/2/3
f 197/1/3 187/1/3 196/1/3
f 198/1/3 189/1/3 188/1/3
f 198/2/3 188/2/3 197/2/3
f 199/2/3 190/2/3 189/2/3
f 199/1/3 189/1/3 198/1/3
f 200/1/3 191/1/3 190/1/3
f 200/2/3 190/2/3 199/2/3
f 201/2/3 192/2/3 191/2/3
f 201/1/3 191/1/3 200/1/3
f 202/1/3 193/1/3 192/1/3
f 202/2/3 192/2/3 201/2/3
f 203/2/3 194/2/3 193/2/3
f 203/1/3 193/1/3 202/1/3
f 204/1/3 184/1/3 194/1/3
f 204/2/3 194/2/3 203/2/3
f 205/1/3 195/1/3 173/1/3
f 206/1/3 195/1/3 205/1/3
f 207/1/3 197/1/3 196/1/3
f 208/1/3 197/1/3 207/1/3
f 209/1/3 199/1/3 198/1/3
f 210/1/3 199/1/3 209/1/3
f 211/1/3 201/1/3 200/1/3
f 212/1/3 201/1/3 211/1/3
f 213/1/3 203/1/3 202/1/3
f 214/1/3 203/1/3 213/1/3
f 215/1/3 184/1/3 204/1/3
f 216/1/3 184/1/3 215/1/3
f 227/2/3 218/2/3 217/2/3
f 228/2/3 218/2/3 227/2/3
f 229/2/3 220/2/3 219/2/3
f 230/2/3 220/2/3 229/2/3
f 231/2/3 222/2/3 221/2/3
f 232/2/3 222/2/3 231/2/3
f 233/2/3 224/2/3 223/2/3
f 234/2/3 224/2/3 233/2/3
f 235/2/3 226/2/3 225/2/3
f 236/2/3 226/2/3 235/2/3
f 241/1/3 238/1/3 237/1/3
f 242/1/3 238/1/3 241/1/3
f 243/1/3 240/1/3 239/1/3
f 244/1/3 240/1/3 243/1/3
f 249/1/3 246/1/3 245/1/3
f 250/1/3 246/1/3 249/1/3
f 251/1/3 248/1/3 247/1/3
f 252/1/3 248/1/3 251/1/3
f 253/1/4 254/1/4 257/1/4
f 257/1/4 254/1/4 258/1/4
f 255/1/4 256/1/4 259/1/4
f 259/1/4 256/1/4 260/1/4
f 261/1/4 262/1/4 265/1/4
f 265/1/4 262/1/4 266/1/4
f 263/1/4 264/1/4 267/1/4
f 267/1/4 264/1/4 268/1/4
f 271/2/4 272/2/4 279/2/4
f 273/2/4 274/2/4 280/2/4
f 275/2/4 276/2/4 281/2/4
f 277/2/4 278/2/4 282/2/4
f 271/2/4 279/2/4 283/2/4
f 279/2/4 280/2/4 283/2/4
f 280/2/4 274/2/4 284/2/4
f 283/2/4 280/2/4 284/2/4
f 275/2/4 281/2/4 285/2/4
f 281/2/4 282/2/4 285/2/4
f 282/2/4 278/2/4 286/2/4
f 285/2/4 282/2/4 286/2/4
f 269/2/4 270/2/4 287/2/4
f 271/2/4 283/2/4 288/2/4
f 284/2/4 274/2/4 289/2/4
f 275/2/4 285/2/4 290/2/4
f 287/2/4 288/2/4 291/2/4
f 269/2/4 287/2/4 291/2/4
f 288/2/4 283/2/4 292/2/4
f 291/2/4 288/2/4 292/2/4
f 289/2/4 290/2/4 293/2/4
f 284/2/4 289/2/4 293/2/4
f 290/2/4 285/2/4 294/2/4
f 293/2/4 290/2/4 294/2/4
f 269/2/4 291/2/4 295/2/4
f 295/2/4 291/2/4 296/2/4
f 292/2/4 283/2/4 297/2/4
f 297/2/4 283/2/4 298/2/4
f 284/2/4 293/2/4 299/2/4
f 299/2/4 293/2/4 300/2/4
f 294/2/4 285/2/4 301/2/4
f 301/2/4 285/2/4 302/2/4
f 286/2/4 278/2/4 303/2/4
f 303/2/4 278/2/4 304/2/4
f 309/1/4 310/1/4 317/1/4
f 317/1/4 310/1/4 318/1/4
f 313/1/4 314/1/4 319/1/4
f 319/1/4 314/1/4 320/1/4
f 307/1/4 308/1/4 325/1/4
f 325/1/4 308/1/4 326/1/4
f 311/1/4 312/1/4 327/1/4
f 327/1/4 312/1/4 328/1/4
f 305/1/4 306/1/4 333/1/4
f 333/1/4 306/1/4 334/1/4
f 329/1/4 330/1/4 335/1/4
f 335/1/4 330/1/4 336/1/4
f 321/1/4 322/1/4 337/1/4
f 337/1/4 322/1/4 338/1/4
f 331/1/4 332/1/4 339/1/4
f 339/1/4 332/1/4 340/1/4
f 323/1/4 324/1/4 341/1/4
f 341/1/4 324/1/4 342/1/4
f 315/1/4 316/1/4 343/1/4
f 343/1/4 316/1/4 344/1/4
f 347/1/5 346/1/5 345/1/5
f 348/1/5 346/1/5 347/1/5
f 353/1/5 352/1/5 351/1/5
f 354/1/5 352/1/5 353/1/5
f 355/1/5 350/1/5 349/1/5
f 356/1/5 350/1/5 355/1/5
f 359/1/5 358/1/5 357/1/5
f 363/1/5 359/1/5 357/1/5
f 363/1/5 360/1/5 359/1/5
f 364/1/5 360/1/5 363/1/5
f 365/1/5 362/1/5 361/1/5
f 366/1/5 362/1/5 365/1/5
f 371/1/5 370/1/5 369/1/5
f 372/1/5 370/1/5 371/1/5
f 373/1/5 368/1/5 367/1/5
f 374/1/5 368/1/5 373/1/5
f 377/1/5 376/1/5 375/1/5
f 381/1/5 377/1/5 375/1/5
f 381/1/5 378/1/5 377/1/5
f 382/1/5 378/1/5 381/1/5
f 383/1/5 380/1/5 379/1/5
f 384/1/5 380/1/5 383/1/5
f 389/1/5 388/1/5 387/1/5
f 390/1/5 388/1/5 389/1/5
f 391/1/5 386/1/5 385/1/5
f 392/1/5 386/1/5 391/1/5
f 395/1/5 394/1/5 393/1/5
f 399/1/5 395/1/5 393/1/5
f 399/1/5 396/1/5 395/1/5
f 400/1/5 396/1/5 399/1/5
f 401/1/5 398/1/5 397/1/5
f 402/1/5 398/1/5 401/1/5
f 407/1/5 406/1/5 405/1/5
f 408/1/5 406/1/5 407/1/5
f 409/1/5 404/1/5 403/1/5
f 410/1/5 404/1/5 409/1/5
f 413/1/5 412/1/5 411/1/5
f 417/1/5 413/1/5 411/1/5
f 417/1/5 414/1/5 413/1/5
f 418/1/5 414/1/5 417/1/5
f 419/1/5 416/1/5 415/1/5
f 420/1/5 416/1/5 419/1/5
f 425/1/5 424/1/5 423/1/5
f 426/1/5 424/1/5 425/1/5
f 427/1/5 422/1/5 421/1/5
f 429/1/5 427/1/5 421/1/5
f 429/1/5 428/1/5 427/1/5
f 430/1/5 428/1/5 429/1/5
f 433/1/6 434/1/6 435/1/6
f 435/1/6 434/1/6 436/1/6
f 431/1/6 432/1/6 437/1/6
f 431/1/6 437/1/6 439/1/6
f 437/1/6 438/1/6 439/1/6
f 439/1/6 438/1/6 440/1/6
f 443/1/6 444/1/6 445/1/6
f 445/1/6 444/1/6 446/1/6
f 441/1/6 442/1/6 447/1/6
f 447/1/6 442/1/6 448/1/6
f 449/1/6 450/1/6 451/1/6
f 449/1/6 451/1/6 455/1/6
f 451/1/6 452/1/6 455/1/6
f 455/1/6 452/1/6 456/1/6
f 453/1/6 454/1/6 457/1/6
f 457/1/6 454/1/6 458/1/6
f 461/1/6 462/1/6 463/1/6
f 463/1/6 462/1/6 464/1/6
f 459/1/6 460/1/6 465/1/6
f 465/1/6 460/1/6 466/1/6
f 467/1/6 468/1/6 469/1/6
f 467/1/6 469/1/6 473/1/6
f 469/1/6 470/1/6 473/1/6
f 473/1/6 470/1/6 474/1/6
f 471/1/6 472/1/6 475/1/6
f 475/1/6 472/1/6 476/1/6
f 479/1/6 480/1/6 481/1/6
f 481/1/6 480/1/6 482/1/6
f 477/1/6 478/1/6 483/1/6
f 483/1/6 478/1/6 484/1/6
f 485/1/6 486/1/6 487/1/6
f 485/1/6 487/1/6 491/1/6
f 487/1/6 488/1/6 491/1/6
f 491/1/6 488/1/6 492/1/6
f 489/1/6 490/1/6 493/1/6
f 493/1/6 490/1/6 494/1/6
f 497/1/6 498/1/6 499/1/6
f 499/1/6 498/1/6 500/1/6
f 495/1/6 496/1/6 501/1/6
f 501/1/6 496/1/6 502/1/6
f 503/1/6 504/1/6 505/1/6
f 503/1/6 505/1/6 509/1/6
f 505/1/6 506/1/6 509/1/6
f 509/1/6 506/1/6 510/1/6
f 507/1/6 508/1/6 511/1/6
f 511/1/6 508/1/6 512/1/6
f 513/1/6 514/1/6 515/1/6
f 515/1/6 514/1/6 516/1/6
